<svg xmlns="http://www.w3.org/2000/svg" xmlns:xlink="http://www.w3.org/1999/xlink" viewBox="0 0 32 32"><defs><path id="a" d="M0 32h32V0H0z"/><radialGradient id="b" cx="50%" cy="50%" r="50%" fx="50%" fy="50%"><stop offset="0%" stop-color="#F9DB4F"/><stop offset="53.57%" stop-color="#F9DB4F"/><stop offset="86.56%" stop-color="#B95F17"/><stop offset="100%" stop-color="#AC5718"/></radialGradient><radialGradient id="d" cx="50%" cy="50%" r="50%" fx="50%" fy="50%"><stop offset="0%" stop-color="#FFF"/><stop offset="23.47%" stop-color="#FFF"/><stop offset="100%" stop-color="#FFF" stop-opacity="0"/></radialGradient></defs><g fill="none" fill-rule="evenodd"><mask id="c" fill="#fff"><use xlink:href="#a"/></mask><use fill="#3B9600" xlink:href="#a"/><path fill="url(#b)" fill-rule="nonzero" d="M25.5 44a18.5 18.5 0 1 1 0-37 18.5 18.5 0 0 1 0 37z" mask="url(#c)"/><path fill="#623D23" fill-rule="nonzero" d="M25.5 43a17.5 17.5 0 1 0 0-35 17.5 17.5 0 0 0 0 35zm0 1a18.5 18.5 0 1 1 0-37 18.5 18.5 0 0 1 0 37z" mask="url(#c)"/><path fill="#050508" d="M35 25.5a9.5 9.5 0 1 1-19 0 9.5 9.5 0 0 1 19 0" mask="url(#c)"/><path fill="url(#d)" d="M26.9 18.95a7.95 7.95 0 1 1-15.9 0 7.95 7.95 0 0 1 15.9 0" mask="url(#c)"/></g></svg>